<svg width="27" height="27" viewBox="0 0 27 27" fill="none" xmlns="http://www.w3.org/2000/svg">
<path d="M10.3765 13.7997C10.3765 14.5586 10.678 15.2863 11.2145 15.8229C11.7511 16.3595 12.4789 16.661 13.2377 16.661C13.9966 16.661 14.7244 16.3595 15.261 15.8229C15.7975 15.2863 16.099 14.5586 16.099 13.7997C16.099 13.0409 15.7975 12.3131 15.261 11.7765C14.7244 11.2399 13.9966 10.9385 13.2377 10.9385C12.4789 10.9385 11.7511 11.2399 11.2145 11.7765C10.678 12.3131 10.3765 13.0409 10.3765 13.7997ZM24.3302 13.1406C21.9084 8.0389 18.2475 5.47144 13.3399 5.47144C8.42983 5.47144 4.77151 8.0389 2.34967 13.1432C2.25253 13.3489 2.20215 13.5735 2.20215 13.801C2.20215 14.0285 2.25253 14.2531 2.34967 14.4588C4.77151 19.5605 8.43238 22.128 13.3399 22.128C18.25 22.128 21.9084 19.5605 24.3302 14.4563C24.5269 14.0424 24.5269 13.5621 24.3302 13.1406ZM13.2377 18.296C10.7546 18.296 8.7415 16.2829 8.7415 13.7997C8.7415 11.3166 10.7546 9.30347 13.2377 9.30347C15.7209 9.30347 17.734 11.3166 17.734 13.7997C17.734 16.2829 15.7209 18.296 13.2377 18.296Z" fill="#90A53A"/>
</svg>
