<svg width="60" height="60" viewBox="0 0 60 60" fill="none" xmlns="http://www.w3.org/2000/svg">
<circle cx="30" cy="30" r="30" fill="#94B316"/>
<path fill-rule="evenodd" clip-rule="evenodd" d="M34.2798 29.47C34.4203 29.6106 34.4992 29.8012 34.4992 30C34.4992 30.1987 34.4203 30.3893 34.2798 30.53L26.7798 38.03C26.6377 38.1625 26.4496 38.2346 26.2553 38.2311C26.061 38.2277 25.8756 38.149 25.7382 38.0116C25.6008 37.8742 25.5221 37.6888 25.5187 37.4945C25.5152 37.3002 25.5874 37.1121 25.7198 36.97L32.6898 30L25.7198 23.03C25.5874 22.8878 25.5152 22.6997 25.5187 22.5054C25.5221 22.3111 25.6008 22.1258 25.7382 21.9883C25.8756 21.8509 26.061 21.7722 26.2553 21.7688C26.4496 21.7654 26.6377 21.8375 26.7798 21.97L34.2798 29.47Z" fill="white"/>
</svg>
