<svg width="65" height="64" viewBox="0 0 65 64" fill="none" xmlns="http://www.w3.org/2000/svg">
<g clip-path="url(#clip0_21_228)">
<path d="M63.7082 8.40798C56.7882 3.16398 46.1362 0.0319824 35.2122 0.0319824C21.7042 0.0319824 10.6962 4.74798 5.01622 12.972C2.34822 16.832 0.872222 21.408 0.628222 26.564C0.412222 31.156 1.18422 36.236 2.92022 41.7C8.84822 23.924 25.4082 10.008 44.5002 10.008C44.5002 10.008 26.6362 14.708 15.4042 29.272C12.8396 32.5733 10.7823 36.2391 9.30022 40.148C6.12934 47.7029 4.49749 55.8146 4.50022 64.008H12.5002C12.5002 64.008 11.2842 56.368 13.3962 47.584C16.52 48.0263 19.6694 48.2628 22.8242 48.292C30.1802 48.292 35.4082 46.7 39.2842 43.284C42.7562 40.224 44.6722 36.108 46.7002 31.756C49.7962 25.104 53.3042 17.568 63.4922 11.748C63.7797 11.584 64.0219 11.3513 64.1973 11.0707C64.3727 10.7901 64.4757 10.4703 64.4971 10.1401C64.5185 9.80991 64.4576 9.47954 64.3199 9.17863C64.1823 8.87772 63.9721 8.61568 63.7082 8.41598V8.40798Z" fill="#94B316"/>
</g>
<defs>
<clipPath id="clip0_21_228">
<rect width="64" height="64" fill="white" transform="translate(0.5)"/>
</clipPath>
</defs>
</svg>
