<svg width="64" height="64" viewBox="0 0 64 64" fill="none" xmlns="http://www.w3.org/2000/svg">
<path d="M31.8748 0.625C32.38 0.824455 32.7032 1.18547 33.0701 1.57031C33.6487 2.16292 34.247 2.70147 34.8968 3.2168C35.2099 3.46803 35.5137 3.7275 35.8162 3.99136C38.6646 6.4609 42.0244 8.51704 45.5935 9.74219C45.7394 9.79291 45.7394 9.79291 45.8882 9.84467C47.9646 10.5173 50.0273 10.5582 52.1878 10.564C52.4902 10.5661 52.7927 10.5683 53.0951 10.5708C53.884 10.5767 54.6728 10.5804 55.4617 10.5837C56.2696 10.5874 57.0774 10.5933 57.8853 10.5989C59.4651 10.6096 61.0449 10.6181 62.6248 10.625C62.6254 10.8442 62.6258 11.0633 62.6262 11.2825C62.6265 11.4046 62.6267 11.5266 62.627 11.6524C62.6221 12.4317 62.5491 13.2081 62.4842 13.9844C62.4762 14.08 62.4682 14.1757 62.46 14.2743C61.8493 21.4778 60.6125 28.7397 58.3748 35.625C58.3374 35.7405 58.3374 35.7405 58.2992 35.8584C57.3232 38.8655 56.2277 41.8271 54.7523 44.6301C54.614 44.8958 54.4804 45.1635 54.347 45.4316C53.2267 47.6559 51.8386 49.7093 50.2498 51.625C50.1942 51.6933 50.1386 51.7615 50.0814 51.8318C48.6131 53.6325 46.9751 55.3402 45.1248 56.75C44.9673 56.8748 44.8099 56.9998 44.6526 57.125C41.5668 59.5603 38.09 61.4617 34.3748 62.75C34.2712 62.786 34.1677 62.8219 34.061 62.8589C33.7734 62.9566 33.4849 63.0499 33.1951 63.1406C33.0722 63.1805 33.0722 63.1805 32.9468 63.2212C31.8529 63.5408 30.8802 63.1635 29.8435 62.8125C29.7117 62.768 29.5798 62.7235 29.444 62.6776C28.1731 62.2388 26.9566 61.716 25.7498 61.125C25.644 61.0736 25.5382 61.0223 25.4292 60.9694C23.0855 59.8203 20.8937 58.4055 18.8748 56.75C18.8044 56.6923 18.7341 56.6347 18.6616 56.5753C16.8279 55.06 15.0686 53.3951 13.6248 51.5C13.5 51.3425 13.3749 51.1851 13.2498 51.0278C8.39074 44.8685 5.84641 37.28 3.99979 29.75C3.96845 29.6227 3.96845 29.6227 3.93647 29.4929C2.44719 23.4207 1.34072 16.8883 1.37479 10.625C1.44305 10.6247 1.51131 10.6244 1.58164 10.6241C3.25248 10.6167 4.92331 10.6072 6.59413 10.5955C7.40217 10.59 8.2102 10.5851 9.01825 10.5817C9.79958 10.5784 10.5809 10.5734 11.3622 10.5671C11.6587 10.565 11.9553 10.5636 12.2518 10.5628C14.3672 10.5566 16.3723 10.4487 18.3904 9.75C18.4984 9.71305 18.6065 9.6761 18.7177 9.63803C20.9651 8.84011 23.0313 7.71155 24.9998 6.375C25.0788 6.32171 25.1578 6.26841 25.2392 6.2135C26.4654 5.3799 27.6119 4.4493 28.7498 3.5C28.8279 3.43514 28.906 3.37029 28.9864 3.30347C30.0016 2.45781 30.9573 1.57623 31.8748 0.625ZM31.8748 9.375C31.8276 9.42511 31.7804 9.47522 31.7317 9.52686C31.1864 10.0901 30.6035 10.5866 29.9925 11.0771C29.7484 11.2749 29.5071 11.476 29.2688 11.6807C26.4681 14.0856 22.7551 16.3715 18.9737 16.4007C18.8736 16.4019 18.7736 16.4031 18.6704 16.4044C18.3418 16.4083 18.0131 16.4115 17.6844 16.4146C17.4556 16.4171 17.2269 16.4197 16.9982 16.4224C16.3977 16.4293 15.7972 16.4355 15.1968 16.4415C14.5834 16.4478 13.9701 16.4548 13.3567 16.4617C12.1544 16.4751 10.9521 16.4878 9.74979 16.5C9.76827 16.8949 9.78726 17.2897 9.80634 17.6845C9.8115 17.795 9.81667 17.9055 9.82199 18.0193C9.87178 19.041 9.96633 20.0545 10.0857 21.0703C10.0963 21.1619 10.1069 21.2535 10.1179 21.3478C11.1403 30.0897 13.2198 39.8066 19.1248 46.625C19.2592 46.7802 19.2592 46.7802 19.3963 46.9385C20.6175 48.3199 21.8989 49.5264 23.3748 50.625C23.4815 50.7046 23.5881 50.7842 23.698 50.8662C25.7897 52.3742 28.1039 53.5553 30.5389 54.3984C30.6455 54.4364 30.7521 54.4744 30.8619 54.5135C32.0278 54.8964 32.9173 54.6074 34.031 54.1953C34.1505 54.1513 34.27 54.1073 34.3931 54.062C41.4429 51.3951 46.3899 45.8905 49.4494 39.1486C49.939 38.0359 50.3578 36.9004 50.7498 35.75C50.7963 35.6135 50.8428 35.477 50.8908 35.3364C52.441 30.7166 53.3527 25.9043 53.9139 21.0703C53.924 20.9837 53.9342 20.8971 53.9447 20.8079C54.1108 19.3747 54.1892 17.9412 54.2498 16.5C54.1261 16.4995 54.0024 16.4991 53.875 16.4986C52.7001 16.494 51.5254 16.4867 50.3506 16.477C49.7468 16.4721 49.1431 16.4681 48.5394 16.4661C47.955 16.4642 47.3706 16.4599 46.7863 16.454C46.5651 16.4521 46.3439 16.4511 46.1227 16.451C41.0474 16.4461 36.8731 13.7157 33.2498 10.375C33.0656 10.2075 32.8808 10.0408 32.6951 9.875C32.5793 9.77059 32.5793 9.77059 32.4612 9.66406C32.2401 9.47372 32.2401 9.47372 31.8748 9.375Z" fill="#94B316"/>
<path d="M31.875 16.5C32.2946 16.6833 32.5761 16.9192 32.9062 17.2344C35.0032 19.1469 37.767 21.2298 40.725 21.2757C40.9389 21.2794 40.9389 21.2794 41.1571 21.2832C41.3097 21.2853 41.4624 21.2874 41.6196 21.2896C41.7769 21.2921 41.9341 21.2947 42.0962 21.2974C42.5127 21.3042 42.9292 21.3105 43.3458 21.3165C43.7715 21.3228 44.1971 21.3298 44.6228 21.3367C45.4568 21.35 46.2909 21.3628 47.125 21.375C47.149 22.6774 47.0982 23.94 46.9297 25.2344C46.9189 25.3183 46.9082 25.4023 46.8971 25.4887C46.0165 32.2788 44.0915 39.9816 38.4334 44.3996C36.9491 45.5365 35.3755 46.4692 33.625 47.1328C33.5279 47.1702 33.4308 47.2076 33.3307 47.2462C32.1702 47.6631 31.3528 47.5083 30.2344 47.0625C30.0615 46.9948 30.0615 46.9948 29.8851 46.9258C25.454 45.145 22.0381 41.5407 20.1547 37.1975C18.067 32.2509 16.8346 26.7515 16.875 21.375C17.0031 21.3743 17.0031 21.3743 17.1337 21.3736C17.9463 21.3688 18.7588 21.3617 19.5713 21.352C19.9888 21.3471 20.4063 21.3433 20.8238 21.3411C21.3061 21.3384 21.7883 21.3326 22.2705 21.3262C22.4173 21.326 22.5641 21.3259 22.7154 21.3257C24.1415 21.301 25.4938 20.9545 26.7578 20.2891C26.8407 20.2464 26.9235 20.2038 27.0089 20.1599C28.8168 19.2056 30.3675 17.866 31.875 16.5Z" fill="#94B316"/>
</svg>
