<svg width="64" height="64" viewBox="0 0 64 64" fill="none" xmlns="http://www.w3.org/2000/svg">
<path d="M9.32352 10.5725C9.47894 10.5714 9.63435 10.5704 9.79448 10.5693C10.2183 10.5669 10.6421 10.5661 11.0659 10.5664C11.421 10.5664 11.776 10.5653 12.131 10.5643C12.9693 10.5619 13.8075 10.5615 14.6457 10.5624C15.5077 10.5632 16.3697 10.5603 17.2317 10.5557C17.9743 10.5519 18.7169 10.5504 19.4595 10.5509C19.9019 10.5512 20.3443 10.5505 20.7867 10.5474C21.2806 10.5441 21.7744 10.5459 22.2683 10.5481C22.4131 10.5464 22.5578 10.5448 22.7069 10.5431C23.7242 10.5535 24.6123 10.7451 25.3591 11.4811C25.8903 12.1105 26.1356 12.8481 26.3746 13.625C26.4151 13.7563 26.4151 13.7563 26.4563 13.8902C26.9996 15.6649 26.9996 15.6649 26.9996 16C27.1169 15.9995 27.2341 15.9991 27.355 15.9986C30.2116 15.9875 33.0682 15.9793 35.9249 15.9741C37.3063 15.9715 38.6878 15.968 40.0692 15.9623C41.2736 15.9573 42.4781 15.9541 43.6825 15.9529C44.3199 15.9523 44.9573 15.9508 45.5947 15.9471C46.1954 15.9437 46.7961 15.9427 47.3969 15.9434C47.6166 15.9433 47.8363 15.9423 48.0561 15.9404C49.8687 15.9253 51.373 16.196 52.7418 17.4766C53.6823 18.4819 54.2169 19.6942 54.2652 21.0703C54.2575 21.2211 54.2575 21.2211 54.2496 21.375C54.4043 21.3801 54.559 21.3853 54.7184 21.3906C55.7842 21.5085 56.8891 22.1052 57.6246 22.875C58.609 24.249 58.7808 25.2688 58.5664 26.9592C58.4829 27.4489 58.3897 27.9362 58.2923 28.4232C58.2564 28.6089 58.2207 28.7946 58.1851 28.9803C58.0889 29.4802 57.9907 29.9797 57.8921 30.4792C57.7881 31.0079 57.6861 31.5369 57.5838 32.0659C57.3894 33.0701 57.1935 34.074 56.9968 35.0777C56.7112 36.5365 56.428 37.9958 56.1447 39.455C56.1022 39.6739 56.0597 39.8928 56.0172 40.1117C55.9963 40.219 55.9755 40.3263 55.9541 40.4369C55.833 41.0603 55.7115 41.6836 55.5896 42.3068C55.5129 42.6987 55.4364 43.0906 55.36 43.4825C55.3229 43.6726 55.2857 43.8627 55.2484 44.0528C55.0457 45.0867 54.8512 46.1212 54.6743 47.1598C54.6416 47.3487 54.609 47.5377 54.5763 47.7266C54.5155 48.0784 54.4573 48.4305 54.4007 48.783C54.1493 50.2458 53.7086 51.4484 52.4996 52.375C51.1445 53.1859 50.0488 53.4123 48.4919 53.4084C48.3252 53.4089 48.1585 53.4095 47.9917 53.4101C47.5348 53.4117 47.0779 53.4116 46.6211 53.4113C46.1278 53.4113 45.6345 53.4127 45.1412 53.4138C44.1752 53.4159 43.2092 53.4166 42.2431 53.4168C41.4576 53.4169 40.6721 53.4174 39.8866 53.4182C37.6582 53.4204 35.4298 53.4215 33.2014 53.4213C33.0813 53.4213 32.9613 53.4213 32.8375 53.4213C32.7173 53.4213 32.5971 53.4213 32.4732 53.4213C30.5254 53.4212 28.5776 53.4236 26.6299 53.4271C24.6286 53.4307 22.6273 53.4324 20.626 53.4322C19.503 53.4321 18.3799 53.4328 17.2569 53.4355C16.3006 53.4378 15.3442 53.4383 14.3879 53.4366C13.9004 53.4358 13.4129 53.4358 12.9253 53.438C12.4782 53.4399 12.0311 53.4396 11.5839 53.4374C11.3473 53.4368 11.1107 53.4387 10.8742 53.4407C9.26464 53.4278 7.94509 52.9668 6.74961 51.875C5.6642 50.6584 5.29806 49.3125 5.31112 47.7104C5.31034 47.5614 5.30956 47.4124 5.30876 47.2589C5.30712 46.8492 5.30769 46.4395 5.30925 46.0298C5.31039 45.5865 5.30863 45.1431 5.30726 44.6998C5.30504 43.8329 5.30551 42.9661 5.30697 42.0992C5.3081 41.3946 5.30825 40.69 5.3077 39.9853C5.30763 39.8849 5.30755 39.7844 5.30747 39.6809C5.30731 39.4767 5.30715 39.2726 5.30698 39.0684C5.30556 37.1568 5.3072 35.2452 5.30988 33.3336C5.31212 31.6944 5.31173 30.0552 5.30943 28.416C5.30675 26.5104 5.3057 24.6048 5.30723 22.6992C5.30739 22.496 5.30755 22.2927 5.3077 22.0894C5.30782 21.9394 5.30782 21.9394 5.30794 21.7864C5.30837 21.0827 5.30764 20.3789 5.30646 19.6752C5.30506 18.8175 5.30544 17.9599 5.3081 17.1022C5.30942 16.6649 5.30994 16.2276 5.30828 15.7902C5.30691 15.3158 5.30863 14.8414 5.31112 14.3669C5.31 14.2292 5.30889 14.0916 5.30774 13.9497C5.31814 12.9296 5.5345 12.143 6.28086 11.3984C6.34596 11.3306 6.41106 11.2628 6.47813 11.1929C7.36366 10.5637 8.27699 10.5699 9.32352 10.5725ZM7.62461 13.25C7.43637 13.6265 7.48293 14.0141 7.48458 14.4269C7.48447 14.5236 7.48437 14.6203 7.48426 14.7199C7.48405 15.0457 7.48474 15.3714 7.48542 15.6971C7.48546 15.9299 7.48544 16.1627 7.48537 16.3954C7.48533 17.0289 7.48607 17.6624 7.48694 18.2959C7.48772 18.9574 7.48779 19.6189 7.48794 20.2803C7.48833 21.5336 7.48936 22.7869 7.49061 24.0402C7.492 25.4667 7.49269 26.8932 7.49332 28.3197C7.49463 31.2548 7.49683 34.1899 7.49961 37.125C7.54086 37.125 7.58211 37.125 7.62461 37.125C7.6504 36.9895 7.67619 36.854 7.70276 36.7144C7.94709 35.4309 8.19163 34.1475 8.43638 32.8641C8.56217 32.2045 8.68788 31.5448 8.81342 30.8851C8.93482 30.2472 9.05642 29.6094 9.17815 28.9715C9.22431 28.7295 9.2704 28.4874 9.31642 28.2453C9.4588 27.4965 9.60289 26.748 9.74961 26C9.767 25.9107 9.78439 25.8213 9.80231 25.7293C9.84978 25.4876 9.89881 25.2461 9.94794 25.0047C9.97442 24.8737 10.0009 24.7426 10.0282 24.6076C10.3294 23.4906 11.0203 22.7108 11.9996 22.125C12.9656 21.6463 13.8478 21.3608 14.9315 21.3577C15.0644 21.357 15.1974 21.3563 15.3345 21.3556C15.5515 21.3554 15.5515 21.3554 15.7729 21.3552C15.9277 21.3546 16.0825 21.354 16.242 21.3533C16.6707 21.3518 17.0994 21.3507 17.5282 21.3499C17.9908 21.3489 18.4535 21.3472 18.9162 21.3456C19.7175 21.3429 20.5188 21.3406 21.3201 21.3386C22.4786 21.3358 23.6371 21.3323 24.7957 21.3286C26.6754 21.3226 28.555 21.3172 30.4347 21.3122C32.2606 21.3072 34.0864 21.3021 35.9123 21.2965C36.0811 21.296 36.0811 21.296 36.2534 21.2955C36.8181 21.2938 37.3828 21.2921 37.9475 21.2904C42.6315 21.2761 47.3156 21.2628 51.9996 21.25C51.9825 21.0694 51.9645 20.8889 51.9462 20.7084C51.9363 20.6078 51.9264 20.5073 51.9162 20.4037C51.8069 19.6711 51.2621 19.0685 50.6871 18.6328C50.0145 18.1728 49.3079 18.0883 48.5111 18.0927C48.4139 18.0922 48.3166 18.0918 48.2164 18.0913C47.8917 18.0901 47.567 18.0906 47.2422 18.0911C47.0089 18.0905 46.7757 18.0899 46.5424 18.0891C46.0406 18.0877 45.5389 18.087 45.0372 18.0869C44.2441 18.0866 43.4511 18.0844 42.658 18.0818C40.6886 18.0756 38.7192 18.0718 36.7498 18.0691C35.2184 18.067 33.6871 18.0642 32.1557 18.0587C31.367 18.056 30.5783 18.055 29.7896 18.0553C29.2996 18.0551 28.8095 18.0533 28.3195 18.0511C28.0919 18.0504 27.8643 18.0504 27.6368 18.051C27.3266 18.0518 27.0165 18.0502 26.7063 18.0481C26.6159 18.0489 26.5254 18.0497 26.4323 18.0505C26.0522 18.0458 25.7862 18.02 25.45 17.836C25.1364 17.5058 25.0563 17.1059 24.9449 16.6763C24.9191 16.5836 24.8932 16.491 24.8666 16.3956C24.7842 16.1001 24.7041 15.8041 24.6246 15.5078C24.5198 15.1181 24.4127 14.7291 24.3043 14.3403C24.2695 14.2065 24.2695 14.2065 24.234 14.07C24.0872 13.5433 23.9288 13.2187 23.4996 12.875C23.1942 12.7223 22.9958 12.7333 22.6543 12.7316C22.5286 12.7307 22.403 12.7298 22.2735 12.7289C22.066 12.7284 22.066 12.7284 21.8542 12.7279C21.7089 12.727 21.5635 12.7262 21.4138 12.7254C20.9312 12.7229 20.4485 12.7214 19.9659 12.7202C19.8014 12.7197 19.637 12.7192 19.4675 12.7187C18.687 12.7163 17.9064 12.7145 17.1259 12.7135C16.2249 12.7122 15.3239 12.7089 14.4229 12.7039C13.7265 12.7001 13.0302 12.6983 12.3337 12.6979C11.9178 12.6976 11.5019 12.6962 11.086 12.6933C10.6218 12.6903 10.1577 12.6904 9.69355 12.6912C9.55593 12.6896 9.41831 12.688 9.27652 12.6864C8.34602 12.6901 8.34602 12.6901 7.62461 13.25ZM12.3746 24.5C12.0784 24.9392 11.9336 25.3072 11.8381 25.8269C11.8114 25.9681 11.7848 26.1094 11.7573 26.255C11.7293 26.4104 11.7013 26.5659 11.6725 26.7261C11.641 26.895 11.6095 27.0639 11.5779 27.2328C11.5089 27.602 11.4407 27.9714 11.3731 28.3409C11.2051 29.2593 11.0335 30.1771 10.8625 31.0949C10.7992 31.4345 10.7361 31.7741 10.6731 32.1137C10.3363 33.9244 9.99014 35.7332 9.64134 37.5416C9.55061 38.012 9.46003 38.4825 9.36948 38.9529C9.30916 39.2663 9.24884 39.5797 9.18851 39.8931C9.14379 40.1254 9.14379 40.1254 9.09816 40.3625C8.94812 41.1417 8.79776 41.9208 8.64677 42.6998C8.50296 43.4419 8.36002 44.1842 8.21771 44.9266C8.16463 45.2026 8.11122 45.4786 8.05746 45.7545C7.98339 46.1349 7.91047 46.5154 7.83781 46.896C7.80511 47.0617 7.80511 47.0617 7.77175 47.2308C7.55223 48.3947 7.55014 49.1662 8.20274 50.1953C8.79627 50.8045 9.58117 51.2223 10.4377 51.2659C10.6159 51.2662 10.6159 51.2662 10.7976 51.2664C11.0037 51.2671 11.0037 51.2671 11.2139 51.2679C11.3648 51.2678 11.5157 51.2677 11.6712 51.2675C11.8315 51.2679 11.9918 51.2683 12.157 51.2687C12.6024 51.2697 13.0478 51.2699 13.4932 51.27C13.9735 51.2702 14.4537 51.2712 14.934 51.272C15.9843 51.2737 17.0347 51.2745 18.0851 51.275C18.7411 51.2754 19.3971 51.2759 20.053 51.2765C21.8695 51.278 23.686 51.2793 25.5025 51.2797C25.6769 51.2797 25.6769 51.2797 25.8548 51.2798C26.0296 51.2798 26.0296 51.2798 26.208 51.2799C26.4442 51.2799 26.6803 51.28 26.9165 51.28C27.0336 51.28 27.1508 51.2801 27.2715 51.2801C29.1689 51.2806 31.0664 51.2828 32.9638 51.2857C34.9123 51.2887 36.8607 51.2902 38.8092 51.2904C39.903 51.2905 40.9968 51.2912 42.0906 51.2935C43.0222 51.2954 43.9538 51.296 44.8854 51.295C45.3605 51.2945 45.8356 51.2946 46.3107 51.2964C46.8264 51.2983 47.3421 51.2972 47.8578 51.2959C48.0817 51.2974 48.0817 51.2974 48.31 51.299C49.36 51.2928 50.4888 51.2149 51.3043 50.4766C51.3815 50.4103 51.4587 50.3441 51.5382 50.2759C52.0327 49.6306 52.1875 48.8043 52.3185 48.0173C52.3353 47.9215 52.3522 47.8257 52.3695 47.727C52.4067 47.5155 52.4435 47.304 52.48 47.0923C52.5858 46.4802 52.6955 45.8687 52.8053 45.2572C52.8419 45.053 52.8419 45.053 52.8792 44.8446C53.2043 43.043 53.5553 41.2464 53.9046 39.4493C53.9793 39.0645 54.0539 38.6796 54.1286 38.2947C54.4558 36.6068 54.7838 34.9189 55.1126 33.2313C55.2863 32.3392 55.4596 31.4472 55.6323 30.5549C55.7404 29.9964 55.8492 29.438 55.9585 28.8796C56.0414 28.4546 56.1235 28.0295 56.2057 27.6043C56.2357 27.452 56.2656 27.2997 56.2965 27.1428C56.3235 27.0024 56.3504 26.8621 56.3782 26.7175C56.4018 26.5963 56.4254 26.4751 56.4497 26.3502C56.531 25.7797 56.5704 25.3834 56.2965 24.8672C55.5696 23.9682 54.7624 23.5314 53.6246 23.375C53.3937 23.3641 53.1625 23.3589 52.9313 23.3586C52.728 23.3578 52.728 23.3578 52.5206 23.3571C52.2992 23.3573 52.2992 23.3573 52.0734 23.3574C51.9156 23.3571 51.7578 23.3567 51.5952 23.3563C51.158 23.3553 50.7207 23.3551 50.2835 23.355C49.8116 23.3548 49.3397 23.3538 48.8678 23.353C47.8363 23.3513 46.8047 23.3505 45.7732 23.35C45.1287 23.3496 44.4843 23.3491 43.8398 23.3485C42.0544 23.347 40.269 23.3457 38.4836 23.3453C38.3123 23.3453 38.3123 23.3453 38.1375 23.3452C38.023 23.3452 37.9085 23.3452 37.7906 23.3451C37.5586 23.3451 37.3266 23.345 37.0946 23.345C36.9796 23.3449 36.8645 23.3449 36.7459 23.3449C34.8822 23.3444 33.0185 23.3422 31.1548 23.3393C29.2399 23.3363 27.3251 23.3348 25.4103 23.3346C24.3357 23.3345 23.2612 23.3338 22.1866 23.3315C21.2715 23.3296 20.3563 23.329 19.4411 23.33C18.9746 23.3305 18.5081 23.3304 18.0416 23.3286C17.5347 23.3267 17.0279 23.3277 16.521 23.3291C16.3022 23.3275 16.3022 23.3275 16.0789 23.326C14.7321 23.3341 13.3506 23.4793 12.3746 24.5Z" fill="#94B316"/>
<path d="M37.3605 28.8355C37.6369 28.8359 37.9132 28.833 38.1896 28.8298C38.3676 28.8296 38.5456 28.8295 38.7236 28.8296C38.882 28.8292 39.0404 28.8288 39.2036 28.8285C39.6614 28.879 39.8917 28.965 40.2504 29.25C40.5572 29.6691 40.5344 30.0827 40.538 30.5903C40.5391 30.7128 40.5391 30.7128 40.5401 30.8378C40.5417 31.1028 40.5409 31.3678 40.5395 31.6328C40.5391 31.7685 40.5391 31.7685 40.5387 31.9069C40.5318 33.3407 40.4646 34.7272 40.1254 36.125C40.1012 36.226 40.0771 36.327 40.0522 36.431C39.5365 38.5039 38.701 40.4071 37.2504 42C37.1874 42.0744 37.1244 42.1489 37.0595 42.2256C34.8507 44.6648 31.1786 45.6264 28.0097 45.8594C24.7991 45.9899 24.7991 45.9899 24.0004 45.625C23.2171 44.8054 23.4627 43.3677 23.4736 42.3198C23.5652 38.4505 24.655 34.6941 27.4965 31.9541C30.1499 29.5803 33.9033 28.825 37.3605 28.8355ZM28.3754 34.25C26.5216 36.2459 25.6596 39.3211 25.7504 42C26.392 41.4637 26.9897 40.9009 27.5771 40.3062C27.7075 40.175 27.7075 40.175 27.8406 40.0412C28.1155 39.7648 28.39 39.4879 28.6645 39.2109C29.0282 38.8439 29.3924 38.4772 29.7568 38.1108C29.8402 38.0263 29.9237 37.9418 30.0097 37.8548C30.1255 37.7383 30.1255 37.7383 30.2437 37.6195C30.3116 37.551 30.3795 37.4824 30.4494 37.4118C30.7103 37.1719 30.8717 37.1255 31.227 37.0781C31.6254 37.125 31.6254 37.125 31.9926 37.375C32.2741 37.7845 32.3046 37.9848 32.2269 38.4704C32.0124 39.0612 31.5201 39.4576 31.0741 39.8823C30.9163 40.0379 30.9163 40.0379 30.7552 40.1966C30.4197 40.5264 30.0813 40.8531 29.7426 41.1797C29.4042 41.51 29.0663 41.841 28.7287 42.1721C28.5185 42.3778 28.3078 42.5828 28.0964 42.7873C28.0017 42.8791 27.907 42.971 27.8095 43.0656C27.7255 43.1467 27.6415 43.2278 27.5549 43.3114C27.3611 43.4717 27.3611 43.4717 27.3754 43.625C30.1667 43.6842 33.3007 42.7547 35.3568 40.8098C37.6593 38.4857 38.4052 34.9779 38.391 31.8047C38.3871 31.5364 38.3824 31.2682 38.3754 31C34.7152 30.9185 31.0527 31.5456 28.3754 34.25Z" fill="#94B316"/>
</svg>
