<svg width="64" height="64" viewBox="0 0 64 64" fill="none" xmlns="http://www.w3.org/2000/svg">
<g clip-path="url(#clip0_21_222)">
<path d="M41.1172 0.44156C41.3563 0.48908 41.5954 0.536498 41.8345 0.583821C42.4811 0.712115 43.1274 0.841916 43.7737 0.972056C44.451 1.10825 45.1286 1.24324 45.8061 1.37842C46.9432 1.6055 48.0801 1.83358 49.2168 2.06223C50.5306 2.32646 51.8447 2.58905 53.1589 2.85078C54.4245 3.10287 55.6899 3.35619 56.9552 3.61003C57.4932 3.71794 58.0312 3.82541 58.5694 3.93252C59.2028 4.05866 59.8361 4.18586 60.4691 4.31388C60.7013 4.36066 60.9336 4.40707 61.166 4.45309C61.4834 4.51601 61.8004 4.58025 62.1175 4.64483C62.2093 4.66271 62.3011 4.68058 62.3957 4.699C62.9374 4.81116 63.3974 4.96841 63.8746 5.25C64.0335 5.56786 64.0207 5.79921 64.0277 6.15509C64.0305 6.29199 64.0333 6.42889 64.0362 6.56994C64.0451 7.19817 64.0523 7.82638 64.0571 8.45465C64.0604 8.78565 64.0656 9.11663 64.0725 9.44757C64.0824 9.92506 64.0865 10.4023 64.0895 10.8799C64.0936 11.0271 64.0977 11.1742 64.102 11.3259C64.1003 12.0157 64.0809 12.4988 63.6217 13.0356C63.4589 13.1935 63.2931 13.3482 63.1246 13.5C62.9571 13.6705 62.7901 13.8416 62.6237 14.0132C62.4435 14.1925 62.2629 14.3715 62.0821 14.5503C61.9863 14.6457 61.8904 14.7411 61.7916 14.8394C61.4889 15.1406 61.1857 15.4415 60.8824 15.7422C60.4799 16.1414 60.0778 16.541 59.6759 16.9409C59.5829 17.0328 59.49 17.1247 59.3942 17.2194C59.3094 17.3038 59.2247 17.3882 59.1373 17.4751C59.0247 17.5867 59.0247 17.5867 58.9098 17.7006C58.7355 17.8509 58.7355 17.8509 58.7496 18C58.8782 18.0245 59.0068 18.0491 59.1393 18.0744C59.619 18.1662 60.0983 18.2595 60.5776 18.3532C60.7846 18.3935 60.9917 18.4334 61.1988 18.4729C61.4976 18.5299 61.796 18.5883 62.0943 18.647C62.1862 18.6642 62.278 18.6814 62.3726 18.6991C62.9229 18.8091 63.3859 18.9601 63.8746 19.25C64.0335 19.5679 64.0207 19.7992 64.0277 20.1551C64.0305 20.292 64.0333 20.4289 64.0362 20.5699C64.0451 21.1982 64.0523 21.8264 64.0571 22.4547C64.0604 22.7856 64.0656 23.1166 64.0725 23.4476C64.0824 23.9251 64.0865 24.4023 64.0895 24.8799C64.0936 25.0271 64.0977 25.1742 64.102 25.3259C64.1016 25.4651 64.1013 25.6044 64.1009 25.7479C64.1033 25.9299 64.1033 25.9299 64.1057 26.1157C63.7954 27.2399 62.4564 28.1858 61.6401 29.0003C61.4895 29.1511 61.3389 29.302 61.1883 29.4528C60.7763 29.8653 60.3639 30.2774 59.9515 30.6895C59.506 31.1346 59.061 31.5801 58.6159 32.0256C57.7448 32.8972 56.8734 33.7685 56.0018 34.6397C55.2938 35.3474 54.586 36.0552 53.8782 36.7631C53.7775 36.8639 53.6767 36.9647 53.5729 37.0685C53.3682 37.2733 53.1635 37.478 52.9588 37.6827C51.0406 39.6013 49.122 41.5194 47.2033 43.4375C45.5557 45.0845 43.9085 46.7318 42.2615 48.3794C40.3491 50.2925 38.4365 52.2053 36.5236 54.1178C36.3199 54.3215 36.1161 54.5252 35.9124 54.729C35.8121 54.8292 35.7119 54.9294 35.6086 55.0327C34.9009 55.7403 34.1933 56.448 33.4858 57.1558C32.6246 58.0174 31.7632 58.8787 30.9015 59.7397C30.4616 60.1794 30.0217 60.6191 29.5822 61.059C29.1804 61.4612 28.7783 61.8631 28.376 62.2647C28.23 62.4106 28.084 62.5566 27.9382 62.7027C27.7411 62.9002 27.5436 63.0973 27.346 63.2943C27.2361 63.4042 27.1262 63.5141 27.0129 63.6274C26.5798 64.0347 26.2539 64.0384 25.6644 64.0313C24.7252 63.9604 23.8038 63.7452 22.8821 63.5584C22.643 63.5109 22.4039 63.4635 22.1647 63.4162C21.5181 63.2879 20.8718 63.1581 20.2256 63.0279C19.5482 62.8918 18.8707 62.7568 18.1932 62.6216C17.0561 62.3945 15.9192 62.1664 14.7824 61.9378C13.4686 61.6735 12.1546 61.4109 10.8403 61.1492C9.5747 60.8971 8.30932 60.6438 7.04404 60.39C6.50606 60.2821 5.968 60.1746 5.42986 60.0675C4.79641 59.9413 4.16319 59.8141 3.53012 59.6861C3.2979 59.6393 3.0656 59.5929 2.83323 59.5469C2.51586 59.484 2.19879 59.4198 1.88177 59.3552C1.78996 59.3373 1.69816 59.3194 1.60357 59.301C1.06185 59.1888 0.601838 59.0316 0.124619 58.75C-0.0343114 58.4321 -0.0214993 58.2008 -0.0284576 57.8449C-0.0312724 57.708 -0.0340872 57.5711 -0.0369873 57.4301C-0.0458591 56.8018 -0.0530563 56.1736 -0.0578766 55.5453C-0.0611999 55.2144 -0.0663126 54.8834 -0.0732574 54.5524C-0.0831617 54.0749 -0.087293 53.5977 -0.0902252 53.1201C-0.0943492 52.9729 -0.0984732 52.8258 -0.102722 52.6741C-0.101051 51.9843 -0.0816669 51.5012 0.377579 50.9644C0.540335 50.8065 0.70615 50.6518 0.874619 50.5C1.04217 50.3295 1.20914 50.1584 1.37556 49.9868C1.55577 49.8075 1.73629 49.6285 1.9171 49.4497C2.01297 49.3543 2.10884 49.2589 2.20761 49.1606C2.51037 48.8594 2.81354 48.5585 3.11681 48.2578C3.51934 47.8586 3.92147 47.459 4.32335 47.0591C4.4163 46.9672 4.50925 46.8752 4.60502 46.7805C4.73217 46.654 4.73217 46.654 4.86189 46.5249C4.93698 46.4505 5.01206 46.3761 5.08941 46.2994C5.26371 46.1491 5.26371 46.1491 5.24962 46C5.12101 45.9755 4.99241 45.9509 4.85991 45.9256C4.38026 45.8338 3.9009 45.7405 3.42162 45.6468C3.21462 45.6065 3.00755 45.5666 2.8004 45.5271C2.50169 45.4701 2.20328 45.4117 1.90489 45.353C1.81307 45.3358 1.72124 45.3186 1.62663 45.3009C1.07629 45.1909 0.613297 45.0399 0.124619 44.75C-0.0343114 44.4321 -0.0214993 44.2008 -0.0284576 43.8449C-0.0312724 43.708 -0.0340872 43.5711 -0.0369873 43.4301C-0.0458591 42.8018 -0.0530563 42.1736 -0.0578766 41.5453C-0.0611999 41.2144 -0.0663126 40.8834 -0.0732574 40.5524C-0.0831617 40.0749 -0.087293 39.5977 -0.0902252 39.1201C-0.0943492 38.9729 -0.0984732 38.8258 -0.102722 38.6741C-0.102385 38.5349 -0.102047 38.3956 -0.1017 38.2521C-0.103266 38.1308 -0.104832 38.0094 -0.106445 37.8843C0.203803 36.7601 1.54288 35.8142 2.3591 34.9997C2.50974 34.8489 2.66035 34.6981 2.81094 34.5472C3.22294 34.1347 3.63532 33.7226 4.04776 33.3105C4.49319 32.8654 4.93826 32.4199 5.38338 31.9744C6.25446 31.1028 7.12587 30.2315 7.99741 29.3603C8.70539 28.6526 9.41325 27.9448 10.121 27.2369C10.2218 27.1361 10.3225 27.0353 10.4264 26.9315C10.6311 26.7267 10.8358 26.522 11.0404 26.3173C12.9586 24.3987 14.8772 22.4806 16.7959 20.5625C18.4435 18.9155 20.0907 17.2682 21.7377 15.6206C23.6501 13.7075 25.5627 11.7947 27.4756 9.88216C27.6794 9.67846 27.8831 9.47475 28.0868 9.27104C28.1871 9.17081 28.2874 9.07058 28.3906 8.96731C29.0984 8.25971 29.8059 7.55196 30.5134 6.84415C31.3746 5.98261 32.236 5.12129 33.0977 4.26025C33.5377 3.82065 33.9775 3.38095 34.4171 2.94097C34.8189 2.53881 35.2209 2.13693 35.6232 1.73529C35.7693 1.5894 35.9152 1.4434 36.061 1.29729C36.2581 1.09979 36.4556 0.902684 36.6532 0.70567C36.7631 0.595761 36.8731 0.485852 36.9863 0.372612C37.9521 -0.535694 39.9523 0.205596 41.1172 0.44156ZM38.0562 2.3347C37.8966 2.49482 37.8966 2.49482 37.7338 2.65818C37.6736 2.71734 37.6134 2.7765 37.5514 2.83745C37.3491 3.03742 37.1501 3.24038 36.9509 3.44345C36.8056 3.58841 36.6601 3.73318 36.5144 3.87778C36.1136 4.27659 35.7156 4.67809 35.318 5.08007C34.8891 5.51272 34.4577 5.94285 34.0266 6.37328C33.2797 7.1197 32.5345 7.8677 31.7903 8.61679C30.7143 9.69986 29.636 10.7805 28.557 11.8606C26.8066 13.6129 25.0582 15.3671 23.311 17.1226C21.6135 18.8281 19.9151 20.5327 18.2154 22.2361C18.0584 22.3935 18.0584 22.3935 17.8981 22.5541C17.3728 23.0806 16.8474 23.6071 16.322 24.1336C11.9617 28.5029 7.60465 32.8754 3.24962 37.25C3.61598 37.4942 3.81012 37.559 4.231 37.6431C4.35409 37.6681 4.47717 37.6931 4.60398 37.7189C4.7368 37.745 4.86961 37.771 5.00645 37.7979C5.14317 37.8252 5.27988 37.8526 5.42073 37.8809C5.71003 37.9386 5.99941 37.996 6.28886 38.0529C6.73157 38.1401 7.17395 38.2289 7.61632 38.3179C7.89739 38.3738 8.17847 38.4296 8.45958 38.4854C8.59189 38.5119 8.7242 38.5385 8.86052 38.5658C8.98439 38.59 9.10826 38.6143 9.23589 38.6392C9.3444 38.6607 9.45291 38.6821 9.56471 38.7042C9.88809 38.752 10.1738 38.7828 10.4996 38.75C10.7183 38.4609 10.8787 38.2005 11.0465 37.8828C11.1556 37.6872 11.265 37.4917 11.3746 37.2964C11.4341 37.1891 11.4935 37.0817 11.5548 36.9711C11.9142 36.3326 12.2937 35.7059 12.6715 35.0781C12.7928 34.8762 12.7928 34.8762 12.9166 34.6701C15.3658 30.6035 18.0383 26.6809 20.8746 22.875C20.9407 22.786 21.0068 22.6971 21.0749 22.6054C22.3017 20.9541 23.5659 19.3373 24.8746 17.75C25.0086 17.5861 25.1426 17.4222 25.2765 17.2583C26.555 15.6956 27.8628 14.1629 29.2272 12.6743C29.4574 12.4214 29.6827 12.1655 29.9059 11.9063C30.3428 11.4038 30.7958 10.9168 31.2496 10.4297C31.3223 10.3515 31.395 10.2733 31.47 10.1927C31.8275 9.81031 32.1891 9.43423 32.5621 9.0669C32.8517 8.77996 33.1234 8.48556 33.3873 8.17499C33.9324 7.54873 34.5189 6.96735 35.1085 6.3833C35.2846 6.20793 35.4607 6.03256 35.6368 5.85717C35.9423 5.55294 36.2483 5.24914 36.5543 4.94531C36.9231 4.57905 37.2919 4.21271 37.6601 3.84589C37.8887 3.61828 38.1175 3.39097 38.3466 3.16396C38.4489 3.06209 38.5512 2.96021 38.6566 2.85526C38.7925 2.7203 38.7925 2.7203 38.9312 2.58261C39.1388 2.40705 39.1388 2.40705 39.1246 2.25C38.664 2.11822 38.4661 2.06477 38.0562 2.3347ZM40.8102 3.61646C40.6915 3.73475 40.6915 3.73475 40.5704 3.85543C40.3086 4.11699 40.0491 4.38071 39.7897 4.64453C39.6078 4.82723 39.4258 5.0098 39.2437 5.19225C38.7638 5.67381 38.2859 6.15727 37.8083 6.6411C37.4202 7.03363 37.0307 7.42479 36.6411 7.81587C36.1745 8.28432 35.7086 8.75341 35.2428 9.22266C35.1547 9.31134 35.0666 9.40003 34.9759 9.4914C34.724 9.74532 34.4726 9.99966 34.2214 10.2542C34.1118 10.3645 34.1118 10.3645 34.0001 10.477C33.5443 10.9398 33.1111 11.4179 32.6864 11.9094C32.4749 12.1535 32.257 12.3905 32.0348 12.625C31.918 12.7488 31.918 12.7488 31.7989 12.875C31.6411 13.0417 31.4832 13.2083 31.3253 13.375C30.786 13.9467 30.2629 14.5299 29.7496 15.125C29.6879 15.1964 29.6262 15.2679 29.5626 15.3415C29.1877 15.7766 28.8148 16.2133 28.4418 16.6501C28.3179 16.7951 28.1938 16.94 28.0696 17.0848C27.3068 17.9738 26.5693 18.8784 25.8497 19.8027C25.5587 20.1761 25.2625 20.545 24.9647 20.9131C23.4041 22.8449 21.9407 24.8531 20.4996 26.875C20.4329 26.9682 20.3662 27.0615 20.2974 27.1575C18.3365 29.9026 16.492 32.7366 14.7496 35.625C14.6866 35.7294 14.6866 35.7294 14.6223 35.836C14.3424 36.3 14.0637 36.7646 13.786 37.2299C13.6945 37.3831 13.6029 37.5362 13.5112 37.6892C13.3835 37.9023 13.2567 38.116 13.13 38.3296C13.0565 38.453 12.9831 38.5763 12.9074 38.7035C12.73 38.9808 12.73 38.9808 12.7496 39.25C13.8345 39.5325 14.9242 39.7709 16.0235 39.9897C16.1887 40.0228 16.3538 40.0559 16.5189 40.089C16.8614 40.1576 17.2039 40.226 17.5465 40.2942C17.9854 40.3815 18.4242 40.4695 18.8629 40.5577C19.2022 40.6258 19.5417 40.6936 19.8811 40.7613C20.1215 40.8093 20.3618 40.8576 20.6021 40.9059C20.7474 40.9347 20.8927 40.9636 21.0424 40.9933C21.1703 41.0188 21.2981 41.0443 21.4299 41.0706C21.7572 41.1355 21.7572 41.1355 22.1246 41.125C22.1696 40.9445 22.1696 40.9445 22.2156 40.7604C23.6577 35.0084 25.5802 29.5483 28.2496 24.25C28.3329 24.0833 28.3329 24.0833 28.4178 23.9131C30.7286 19.3053 33.7097 14.9748 37.0768 11.0762C37.2621 10.8605 37.4454 10.6433 37.6285 10.4258C38.2673 9.66936 38.9144 8.94073 39.6246 8.24951C39.8587 8.01584 40.0744 7.77528 40.2887 7.52344C40.7319 7.00586 41.2137 6.53236 41.6981 6.05393C42.1249 5.63037 42.5273 5.19429 42.9161 4.73535C43.2369 4.37324 43.5865 4.04153 43.9366 3.70801C44.1526 3.51582 44.1526 3.51582 44.1246 3.25C43.8253 3.18674 43.5258 3.12438 43.2262 3.0625C43.142 3.04462 43.0578 3.02673 42.9711 3.0083C42.7315 2.95922 42.4905 2.91694 42.2496 2.875C42.1055 2.84952 42.1055 2.84952 41.9586 2.82353C41.4399 2.90348 41.1621 3.25473 40.8102 3.61646ZM46.2389 4.19531C46.1387 4.29757 46.1387 4.29757 46.0365 4.40189C45.9676 4.47551 45.8987 4.54914 45.8277 4.625C45.7192 4.73726 45.7192 4.73726 45.6085 4.85178C45.1768 5.3015 44.7616 5.76324 44.3585 6.23877C43.9821 6.65918 43.5768 7.05032 43.1754 7.44675C42.7532 7.86575 42.3568 8.29778 41.9713 8.75098C41.7007 9.05492 41.4141 9.33902 41.1246 9.625C40.5975 10.1474 40.1066 10.6863 39.6246 11.25C39.5025 11.3893 39.3803 11.5284 39.2579 11.6675C38.4049 12.6393 37.5807 13.6268 36.7945 14.6536C36.6258 14.8735 36.4553 15.092 36.2848 15.3105C34.4143 17.7317 32.7452 20.3331 31.2496 23C31.1754 23.1322 31.1012 23.2643 31.0247 23.4005C28.1916 28.4829 26.0728 33.9105 24.6012 39.5391C24.5465 39.748 24.5465 39.748 24.4907 39.9612C24.3462 40.5345 24.2422 41.0325 24.2496 41.625C24.7233 41.857 25.0981 41.9331 25.6246 41.875C26.3774 41.4751 26.9756 40.7898 27.5733 40.1948C27.7578 40.0153 27.9424 39.8358 28.1272 39.6565C28.5141 39.2788 28.8975 38.8979 29.2791 38.5148C29.6673 38.1259 30.0602 37.7432 30.4592 37.3654C33.3952 34.7189 33.3952 34.7189 34.5038 31.0807C34.5036 30.8117 34.5001 30.5427 34.493 30.2738C34.5044 29.5837 34.6664 28.9263 34.8277 28.2578C34.8611 28.1191 34.8945 27.9803 34.9289 27.8374C35.5609 25.2682 36.4453 22.7434 37.6246 20.375C37.6769 20.269 37.7293 20.1629 37.7832 20.0537C39.2324 17.1403 40.997 14.5787 43.1246 12.125C43.2126 12.0228 43.3006 11.9207 43.3912 11.8154C43.9886 11.1363 44.6197 10.4924 45.2574 9.85156C45.34 9.76837 45.4227 9.68517 45.5078 9.59946C45.9966 9.11216 46.5003 8.65052 47.0228 8.19956C47.3205 7.93763 47.598 7.65905 47.8746 7.375C48.3162 6.92805 48.7689 6.50858 49.2462 6.10059C49.727 5.67257 50.1743 5.20969 50.6246 4.75C50.3128 4.43823 50.1183 4.42396 49.6886 4.33887C49.5512 4.31148 49.4139 4.28408 49.2723 4.25586C49.1282 4.22815 48.9841 4.20043 48.8356 4.17188C48.6929 4.14319 48.5502 4.11451 48.4032 4.08496C47.2445 3.76567 47.2445 3.76567 46.2389 4.19531ZM52.5667 5.77196C52.5033 5.84721 52.4399 5.92247 52.3746 6C52.2728 6.09926 52.1709 6.19852 52.066 6.30078C51.9822 6.38715 51.8984 6.47352 51.8121 6.5625C51.392 6.9884 50.9575 7.38432 50.5035 7.77344C50.2201 8.02637 49.9539 8.29207 49.6871 8.5625C49.3486 8.90563 49.0069 9.23409 48.6402 9.54688C48.1544 9.96301 47.707 10.4135 47.2585 10.8688C46.9286 11.2019 46.5924 11.5183 46.234 11.8203C45.6403 12.3297 45.1364 12.9099 44.6246 13.5C44.5205 13.6167 44.4164 13.7333 44.3092 13.8535C40.6974 17.9514 36.3243 25.1939 36.4996 30.875C37.1543 30.3276 37.7652 29.7519 38.3672 29.1474C38.4634 29.0513 38.5596 28.9552 38.6588 28.8562C38.9794 28.5358 39.2995 28.215 39.6197 27.8941C39.8501 27.6637 40.0805 27.4333 40.311 27.2029C40.8062 26.7077 41.3012 26.2123 41.7961 25.7167C42.5116 25.0003 43.2274 24.2841 43.9433 23.5681C45.1049 22.4061 46.2663 21.2439 47.4275 20.0815C48.5551 18.9528 49.6829 17.8241 50.8108 16.6957C50.8804 16.6261 50.95 16.5564 51.0217 16.4847C51.3708 16.1354 51.72 15.7861 52.0691 15.4368C54.963 12.5416 57.8565 9.64595 60.7496 6.75C60.3723 6.49848 60.1415 6.42747 59.7053 6.33151C59.5684 6.30118 59.4316 6.27085 59.2905 6.23959C58.6643 6.10621 58.0378 5.97431 57.4105 5.84561C57.0798 5.77744 56.7498 5.70639 56.4202 5.63272C55.9445 5.52732 55.4678 5.42875 54.9903 5.33154C54.8436 5.29774 54.6968 5.26393 54.5456 5.22909C53.6433 5.05504 53.2091 5.08716 52.5667 5.77196ZM61.3146 9.16163C61.2556 9.21965 61.1965 9.27767 61.1357 9.33745C60.9354 9.53454 60.7355 9.73209 60.5356 9.92964C60.3917 10.0715 60.2477 10.2133 60.1037 10.3551C59.7061 10.7468 59.3088 11.139 58.9117 11.5313C58.6578 11.782 58.4038 12.0326 58.1497 12.2832C54.8335 15.5539 51.5268 18.8342 48.2229 22.1174C47.8036 22.5341 47.3843 22.9507 46.965 23.3673C46.8608 23.4708 46.7565 23.5744 46.6491 23.681C44.9627 25.3561 43.2711 27.0259 41.5774 28.6936C39.8386 30.4061 38.1053 32.1239 36.3771 33.847C35.3111 34.9094 34.2411 35.9675 33.1655 37.0202C32.4277 37.7432 31.6953 38.4714 30.967 39.2039C30.547 39.626 30.125 40.0454 29.6964 40.4588C27.6529 42.2878 27.6529 42.2878 26.7844 44.7667C26.8058 45.3158 26.8692 45.8411 26.9996 46.375C27.8004 45.7123 28.5365 44.9885 29.2754 44.2586C29.4169 44.1193 29.5584 43.9799 29.6999 43.8406C30.0873 43.459 30.4743 43.0771 30.8612 42.6951C31.1089 42.4506 31.3567 42.2062 31.6045 41.9618C34.8418 38.7699 38.0696 35.5686 41.2945 32.3643C41.7031 31.9584 42.1118 31.5525 42.5204 31.1466C42.622 31.0457 42.7235 30.9448 42.8282 30.8409C44.4733 29.2071 46.1237 27.5786 47.7761 25.9521C49.4742 24.2803 51.1668 22.6031 52.8545 20.9208C53.8946 19.8842 54.9387 18.852 55.9884 17.8251C56.708 17.1204 57.4221 16.4104 58.1322 15.6961C58.5416 15.2847 58.953 14.8758 59.371 14.4731C61.3718 12.6769 61.3718 12.6769 62.2094 10.2387C62.1885 9.6885 62.1264 9.1609 61.9996 8.625C61.7375 8.625 61.4824 8.99621 61.3146 9.16163ZM55.891 20.5278C55.8203 20.5973 55.7497 20.6668 55.6769 20.7385C55.4431 20.9696 55.2115 21.203 54.9801 21.4365C54.8168 21.5994 54.6534 21.7621 54.49 21.9248C54.1464 22.2674 53.804 22.6112 53.4624 22.9557C53.0301 23.3916 52.5951 23.8246 52.1592 24.2568C49.6084 26.7563 49.6084 26.7563 47.4996 29.625C47.4464 29.7118 47.3932 29.7985 47.3384 29.8879C46.1208 31.8922 45.0117 34.1681 44.6246 36.5C44.6659 36.5825 44.7071 36.665 44.7496 36.75C50.0296 31.47 55.3096 26.19 60.7496 20.75C60.3625 20.4919 60.1265 20.4285 59.6764 20.3389C59.4709 20.2978 59.4709 20.2978 59.2613 20.2559C59.1183 20.2281 58.9752 20.2004 58.8277 20.1719C58.6856 20.1432 58.5435 20.1145 58.3971 20.085C57.8248 19.9715 57.8248 19.9715 57.2496 19.875C57.1544 19.8604 57.0591 19.8459 56.961 19.8309C56.4701 19.8953 56.2237 20.1886 55.891 20.5278ZM61.3146 23.1616C61.2556 23.2196 61.1965 23.2777 61.1357 23.3374C60.9354 23.5345 60.7355 23.7321 60.5356 23.9296C60.3917 24.0715 60.2477 24.2133 60.1037 24.3551C59.7061 24.7468 59.3088 25.139 58.9117 25.5313C58.6578 25.782 58.4038 26.0326 58.1497 26.2832C54.8335 29.5539 51.5268 32.8342 48.2229 36.1174C47.8036 36.5341 47.3843 36.9507 46.965 37.3673C46.8608 37.4708 46.7565 37.5744 46.6491 37.681C44.9627 39.3561 43.2711 41.0259 41.5774 42.6936C39.8386 44.4061 38.1053 46.1239 36.3771 47.847C35.3111 48.9094 34.2411 49.9675 33.1655 51.0202C32.4277 51.7432 31.6953 52.4714 30.967 53.2039C30.547 53.626 30.125 54.0454 29.6964 54.4588C27.6529 56.2878 27.6529 56.2878 26.7844 58.7667C26.8058 59.3158 26.8692 59.8411 26.9996 60.375C27.8004 59.7123 28.5365 58.9885 29.2754 58.2586C29.4169 58.1193 29.5584 57.9799 29.6999 57.8406C30.0873 57.459 30.4743 57.0771 30.8612 56.6951C31.1089 56.4506 31.3567 56.2062 31.6045 55.9618C34.8418 52.7699 38.0696 49.5686 41.2945 46.3643C41.7031 45.9584 42.1118 45.5525 42.5204 45.1466C42.622 45.0457 42.7235 44.9448 42.8282 44.8409C44.4733 43.2071 46.1237 41.5786 47.7761 39.9521C49.4742 38.2803 51.1668 36.6031 52.8545 34.9207C53.8946 33.8842 54.9387 32.852 55.9884 31.8251C56.708 31.1204 57.4221 30.4104 58.1322 29.6961C58.5416 29.2847 58.953 28.8758 59.371 28.4731C61.3718 26.6769 61.3718 26.6769 62.2094 24.2387C62.1885 23.6885 62.1264 23.1609 61.9996 22.625C61.7375 22.625 61.4824 22.9962 61.3146 23.1616ZM43.2496 33.25C43.1655 33.3347 43.0814 33.4194 42.9947 33.5066C40.9475 35.5678 38.8984 37.6271 36.8474 39.6846C35.8556 40.6796 34.8644 41.6752 33.8746 42.6721C33.0118 43.5412 32.148 44.4091 31.2828 45.2757C30.8247 45.7345 30.3672 46.1939 29.9111 46.6546C29.4815 47.0884 29.0505 47.5207 28.6184 47.952C28.4602 48.1103 28.3026 48.2692 28.1455 48.4286C27.9305 48.6467 27.7137 48.8628 27.4963 49.0785C27.435 49.1416 27.3737 49.2047 27.3106 49.2697C26.8951 49.6765 26.5191 49.8678 25.9723 50.028C25.5464 50.2135 25.385 50.6082 25.1871 51.0078C25.1182 51.1386 25.1182 51.1386 25.0479 51.272C24.3669 52.5876 23.6997 53.9244 23.3746 55.375C23.6089 55.4353 23.8433 55.4951 24.0777 55.5547C24.2083 55.588 24.3388 55.6214 24.4733 55.6558C24.6057 55.6869 24.7382 55.718 24.8746 55.75C24.9921 55.7846 25.1095 55.8193 25.2305 55.8549C25.6392 55.9151 25.6392 55.9151 25.9709 55.6437C26.0935 55.5282 26.2139 55.4101 26.3323 55.2902C26.3993 55.2258 26.4664 55.1613 26.5355 55.0949C26.7601 54.8779 26.9815 54.6578 27.203 54.4376C27.3633 54.2814 27.5237 54.1254 27.6843 53.9695C28.1207 53.5446 28.5541 53.1168 28.9867 52.6881C29.2577 52.4197 29.5292 52.1517 29.8009 51.8839C30.6528 51.0441 31.5028 50.2024 32.3504 49.3583C33.325 48.3875 34.3051 47.4228 35.2904 46.4629C36.0536 45.7187 36.8116 44.9695 37.5659 44.2163C38.0155 43.7676 38.4669 43.3212 38.9239 42.88C41.685 40.236 41.685 40.236 42.5903 36.6124C42.6511 35.9711 42.851 35.3692 43.0465 34.7578C43.0996 34.5871 43.0996 34.5871 43.1538 34.4129C43.2117 34.2273 43.2703 34.042 43.3299 33.857C43.3995 33.5977 43.3995 33.5977 43.2496 33.25ZM1.99962 39.25C1.99962 40.5288 1.99962 41.8075 1.99962 43.125C4.58292 43.6851 7.17059 44.2164 9.76276 44.7335C10.2961 44.84 10.8293 44.9467 11.3626 45.0533C12.2532 45.2314 13.144 45.4094 14.0347 45.5872C15.0645 45.7927 16.0943 45.9986 17.124 46.2045C18.2262 46.425 19.3285 46.6453 20.4307 46.8655C20.7472 46.9287 21.0637 46.992 21.3802 47.0553C21.8744 47.1541 22.3687 47.2528 22.863 47.3514C23.0446 47.3877 23.2261 47.4239 23.4077 47.4603C23.6543 47.5096 23.9009 47.5588 24.1476 47.6079C24.2858 47.6355 24.424 47.6631 24.5664 47.6916C24.8428 47.7539 24.8428 47.7539 24.9996 47.75C24.9996 46.4712 24.9996 45.1925 24.9996 43.875C22.4163 43.3149 19.8286 42.7836 17.2365 42.2665C16.7032 42.16 16.1699 42.0533 15.6367 41.9467C14.746 41.7686 13.8553 41.5906 12.9646 41.4128C11.9347 41.2073 10.905 41.0014 9.87521 40.7955C8.773 40.575 7.67076 40.3547 6.5685 40.1345C6.252 40.0713 5.93551 40.008 5.61903 39.9447C5.12479 39.8459 4.63053 39.7472 4.13626 39.6486C3.95468 39.6123 3.77312 39.5761 3.59156 39.5397C3.34495 39.4904 3.0983 39.4412 2.85165 39.3921C2.71343 39.3645 2.57521 39.3369 2.43281 39.3084C2.15643 39.2461 2.15643 39.2461 1.99962 39.25ZM7.7742 46.6803C7.69065 46.7647 7.60709 46.8491 7.52101 46.936C7.37841 47.0787 7.3784 47.0787 7.23292 47.2242C7.13095 47.3281 7.02899 47.432 6.92393 47.5391C6.81903 47.6445 6.71414 47.7499 6.60606 47.8586C6.27021 48.1965 5.93569 48.5357 5.60118 48.875C5.37413 49.1039 5.147 49.3328 4.91978 49.5615C4.36207 50.1234 3.80545 50.6863 3.24962 51.25C3.61718 51.495 3.81238 51.5592 4.23497 51.6431C4.35886 51.6681 4.48275 51.6931 4.6104 51.7189C4.744 51.745 4.8776 51.771 5.01524 51.7979C5.15255 51.8252 5.28985 51.8526 5.43132 51.8809C5.72167 51.9386 6.0121 51.9959 6.3026 52.0529C6.74802 52.1403 7.19317 52.229 7.63829 52.3179C7.92018 52.3738 8.20208 52.4296 8.48399 52.4854C8.68439 52.5252 8.68439 52.5252 8.88884 52.5658C9.01273 52.59 9.13662 52.6143 9.26427 52.6392C9.42787 52.6714 9.42787 52.6714 9.59477 52.7042C9.88904 52.7601 9.88904 52.7601 10.2496 52.75C10.2887 52.6354 10.3277 52.5207 10.3679 52.4026C10.5148 51.9715 10.6622 51.5406 10.8096 51.1097C10.873 50.9243 10.9363 50.7388 10.9994 50.5533C11.3239 49.6005 11.6481 48.6524 12.0405 47.7248C12.1392 47.501 12.1392 47.501 12.1246 47.25C11.5975 47.1427 11.0703 47.0359 10.543 46.9296C10.3637 46.8933 10.1844 46.8569 10.0051 46.8204C9.74731 46.768 9.48944 46.716 9.23155 46.6641C8.99884 46.6169 8.99884 46.6169 8.76143 46.5688C8.2302 46.4529 8.2302 46.4529 7.7742 46.6803ZM14.2496 47.75C12.9766 50.4144 12.9766 50.4144 12.3746 53.25C16.7677 54.1162 16.7677 54.1162 21.2496 55C21.5796 54.1338 21.9096 53.2675 22.2496 52.375C22.7965 51.2578 22.7965 51.2578 23.0416 50.7935C23.2329 50.4086 23.3754 50.0358 23.4996 49.625C22.9785 49.4415 22.4662 49.3058 21.9246 49.1974C21.7632 49.1649 21.6018 49.1324 21.4355 49.0989C21.2611 49.0643 21.0866 49.0297 20.9122 48.9951C20.732 48.9591 20.5518 48.923 20.3716 48.8869C19.9952 48.8116 19.6188 48.7366 19.2423 48.6619C18.7596 48.566 18.2771 48.4695 17.7947 48.3727C17.4232 48.2982 17.0516 48.2241 16.68 48.1501C16.502 48.1146 16.324 48.079 16.1461 48.0433C15.8978 47.9936 15.6495 47.9444 15.4011 47.8952C15.2599 47.8671 15.1186 47.839 14.9731 47.81C14.622 47.7394 14.622 47.7394 14.2496 47.75ZM1.99962 53.25C1.99962 54.5288 1.99962 55.8075 1.99962 57.125C4.58292 57.6851 7.17059 58.2164 9.76276 58.7335C10.2961 58.84 10.8293 58.9467 11.3626 59.0533C12.2532 59.2314 13.144 59.4094 14.0347 59.5872C15.0645 59.7927 16.0943 59.9986 17.124 60.2045C18.2262 60.425 19.3285 60.6453 20.4307 60.8655C20.7472 60.9287 21.0637 60.992 21.3802 61.0553C21.8744 61.1541 22.3687 61.2528 22.863 61.3514C23.0446 61.3877 23.2261 61.4239 23.4077 61.4603C23.6543 61.5096 23.9009 61.5588 24.1476 61.6079C24.2858 61.6355 24.424 61.6631 24.5664 61.6916C24.8428 61.7539 24.8428 61.7539 24.9996 61.75C24.9996 60.4712 24.9996 59.1925 24.9996 57.875C22.4163 57.3149 19.8286 56.7836 17.2365 56.2665C16.7032 56.16 16.1699 56.0533 15.6367 55.9467C14.746 55.7686 13.8553 55.5906 12.9646 55.4128C11.9347 55.2073 10.905 55.0014 9.87521 54.7955C8.773 54.575 7.67076 54.3547 6.5685 54.1345C6.252 54.0713 5.93551 54.008 5.61903 53.9447C5.12479 53.8459 4.63053 53.7472 4.13626 53.6486C3.95468 53.6123 3.77312 53.5761 3.59156 53.5397C3.34495 53.4904 3.0983 53.4412 2.85165 53.3921C2.71343 53.3645 2.57521 53.3369 2.43281 53.3084C2.15643 53.2461 2.15643 53.2461 1.99962 53.25Z" fill="#94B316"/>
</g>
<defs>
<clipPath id="clip0_21_222">
<rect width="64" height="64" fill="white"/>
</clipPath>
</defs>
</svg>
