<svg width="64" height="64" viewBox="0 0 64 64" fill="none" xmlns="http://www.w3.org/2000/svg">
<path d="M37.2507 10.5C37.3564 10.5261 37.4621 10.5522 37.571 10.5791C41.3969 11.5511 44.6665 13.5444 47.5007 16.25C47.6088 16.3515 47.7169 16.453 47.8283 16.5576C51.4636 20.0625 53.9041 25.4097 54.0337 30.4586C54.0415 30.9594 54.0421 31.46 54.0397 31.9609C54.0394 32.0662 54.0391 32.1714 54.0388 32.2799C54.0318 33.7982 54.0025 35.2714 53.6257 36.75C53.5975 36.8641 53.5692 36.9782 53.5402 37.0958C52.5186 41.126 50.607 44.503 47.7507 47.5C47.655 47.6038 47.5592 47.7075 47.4606 47.8144C44.6141 50.8058 40.7253 52.6766 36.7507 53.625C36.6618 53.6472 36.5729 53.6695 36.4813 53.6924C33.4501 54.4193 29.7501 54.2631 26.7507 53.5C26.6449 53.4739 26.5392 53.4477 26.4303 53.4208C22.711 52.476 19.4419 50.5592 16.6802 47.9211C16.5062 47.7552 16.3301 47.5914 16.154 47.4277C13.1812 44.5827 11.3215 40.7139 10.3757 36.75C10.3534 36.6611 10.3312 36.5722 10.3083 36.4806C9.63222 33.6617 9.67317 30.0581 10.3757 27.25C10.3998 27.1487 10.424 27.0474 10.4489 26.943C11.3901 23.0832 13.2476 19.6159 16.0007 16.75C16.0581 16.6887 16.1155 16.6274 16.1746 16.5643C19.1496 13.3954 23.0448 11.3786 27.2507 10.375C27.3396 10.3527 27.4284 10.3305 27.52 10.3076C30.5513 9.58062 34.2513 9.73683 37.2507 10.5ZM34.0007 14.25C34.0007 16.1475 34.0007 18.045 34.0007 20C37.7132 20 41.4257 20 45.2507 20C42.7826 17.1205 39.5175 15.3449 35.86 14.4531C35.7742 14.4321 35.6884 14.4111 35.6 14.3895C35.0357 14.2614 34.598 14.25 34.0007 14.25ZM34.0007 24C34.0007 25.98 34.0007 27.96 34.0007 30C39.1982 30 44.3957 30 49.7507 30C49.7507 29.2284 49.6763 28.6417 49.5007 27.9062C49.4738 27.7929 49.4469 27.6796 49.4193 27.5629C48.9694 25.6506 48.9694 25.6506 48.0007 24C47.8188 23.988 47.6364 23.9847 47.4541 23.985C47.3362 23.9848 47.2182 23.9846 47.0967 23.9844C46.9662 23.9849 46.8357 23.9853 46.7013 23.9858C46.5648 23.9858 46.4282 23.9858 46.2875 23.9857C45.8336 23.9858 45.3798 23.9868 44.926 23.9878C44.6123 23.988 44.2986 23.9882 43.9848 23.9883C43.242 23.9887 42.4992 23.9897 41.7563 23.991C40.8279 23.9925 39.8995 23.9932 38.9711 23.9939C37.3143 23.9952 35.6575 23.9974 34.0007 24ZM34.0007 34C34.0007 35.98 34.0007 37.96 34.0007 40C38.6207 40 43.2407 40 48.0007 40C48.9533 38.0948 49.7507 36.1583 49.7507 34C44.5532 34 39.3557 34 34.0007 34ZM34.0007 44C34.0007 45.8975 34.0007 47.795 34.0007 49.75C38.1495 49.75 42.1455 47.2113 45.0007 44.375C45.0832 44.2512 45.1657 44.1275 45.2507 44C41.5382 44 37.8257 44 34.0007 44Z" fill="#94B316"/>
<path d="M52.7812 10.2656C53.3037 10.6218 53.6711 11.0132 53.875 11.625C53.9004 11.8813 53.9004 11.8813 53.9062 12.1641C53.9095 12.2564 53.9127 12.3487 53.916 12.4438C53.7972 13.3304 53.1792 13.8745 52.5703 14.4687C52.4868 14.5527 52.4032 14.6366 52.3171 14.7231C51.6946 15.3389 51.2939 15.6604 50.3906 15.6719C49.7397 15.6592 49.3618 15.5874 48.875 15.125C48.3232 14.5442 48.3166 14.014 48.3086 13.25C48.4603 12.3934 49.1483 11.8095 49.7422 11.2187C49.8182 11.1408 49.8941 11.0628 49.9724 10.9824C50.8005 10.1535 51.6418 9.87121 52.7812 10.2656Z" fill="#94B316"/>
<path d="M51.125 48.3749C51.7411 48.7151 52.2188 49.1768 52.7109 49.6718C52.7819 49.7408 52.8529 49.8097 52.926 49.8808C53.4153 50.3695 53.8051 50.8389 53.9248 51.5429C53.9172 52.2435 53.839 52.7832 53.3213 53.3051C52.8413 53.7241 52.4651 53.8931 51.8359 53.9062C51.7436 53.9094 51.6513 53.9126 51.5562 53.9159C50.6696 53.7972 50.1255 53.1791 49.5312 52.5702C49.4053 52.4449 49.4053 52.4449 49.2769 52.317C48.6611 51.6945 48.3396 51.2939 48.3281 50.3905C48.3408 49.7396 48.4126 49.3617 48.875 48.8749C49.5158 48.2661 50.2819 48.2256 51.125 48.3749Z" fill="#94B316"/>
<path d="M14.375 48.375C14.9856 48.6585 15.3415 49.0144 15.625 49.625C15.7163 50.3035 15.7582 50.8838 15.4209 51.4946C15.0817 51.9306 14.7194 52.3218 14.3281 52.7109C14.2592 52.7819 14.1902 52.8529 14.1191 52.926C13.6305 53.4153 13.161 53.8051 12.457 53.9248C11.7564 53.9172 11.2168 53.839 10.6948 53.3213C10.2758 52.8413 10.1068 52.4651 10.0938 51.8359C10.0889 51.6974 10.0889 51.6974 10.084 51.5561C10.2028 50.6696 10.8208 50.1255 11.4297 49.5312C11.5132 49.4473 11.5968 49.3633 11.6829 49.2768C12.5422 48.4268 13.1523 48.2439 14.375 48.375Z" fill="#94B316"/>
<path d="M13.2603 10.3597C13.7345 10.6375 14.0977 11.0367 14.4766 11.4298C14.6016 11.5551 14.6016 11.5551 14.7292 11.683C15.3406 12.3054 15.6604 12.71 15.6719 13.6095C15.6592 14.2604 15.5874 14.6383 15.125 15.1251C14.5442 15.6769 14.014 15.6836 13.25 15.6915C12.4274 15.5458 11.8599 14.9055 11.2891 14.336C11.2181 14.2681 11.1471 14.2002 11.074 14.1302C10.4926 13.553 10.176 13.0255 10.0703 12.1954C10.1634 11.4371 10.4067 10.9238 11.0078 10.4454C11.7768 10.0364 12.4569 9.99842 13.2603 10.3597Z" fill="#94B316"/>
<path d="M32.7493 56C33.3287 56.269 33.7626 56.6489 33.9993 57.25C34.0739 57.8342 34.069 58.4118 34.0618 59C34.0638 59.1573 34.0657 59.3145 34.0677 59.4766C34.0617 60.8984 34.0617 60.8984 33.4993 61.5C33.0219 61.9535 32.639 62.0387 31.9993 62.0625C31.1841 62.0322 30.7886 61.8094 30.2337 61.2158C29.8138 60.5684 29.9277 59.7403 29.9368 59C29.9349 58.8427 29.9329 58.6855 29.931 58.5234C29.937 57.1016 29.937 57.1016 30.4993 56.5C31.1582 55.874 31.8878 55.884 32.7493 56Z" fill="#94B316"/>
<path d="M59 29.9375C59.1573 29.9356 59.3145 29.9337 59.4766 29.9317C60.8984 29.9377 60.8984 29.9377 61.5 30.5C61.9535 30.9775 62.0388 31.3604 62.0625 32C62.0322 32.8153 61.8094 33.2108 61.2158 33.7657C60.5684 34.1856 59.7403 34.0717 59 34.0625C58.8427 34.0645 58.6855 34.0664 58.5234 34.0684C57.1016 34.0624 57.1016 34.0624 56.5 33.5C56.0465 33.0226 55.9612 32.6397 55.9375 32C55.9678 31.1848 56.1906 30.7893 56.7842 30.2344C57.4316 29.8145 58.2597 29.9284 59 29.9375Z" fill="#94B316"/>
<path d="M5 29.9375C5.15727 29.9356 5.31453 29.9337 5.47656 29.9317C6.89838 29.9377 6.89838 29.9377 7.5 30.5C7.95354 30.9775 8.03875 31.3604 8.0625 32C8.03223 32.8153 7.80945 33.2108 7.21582 33.7657C6.56841 34.1856 5.7403 34.0717 5 34.0625C4.84273 34.0645 4.68547 34.0664 4.52344 34.0684C3.10162 34.0624 3.10162 34.0624 2.5 33.5C2.04646 33.0226 1.96125 32.6397 1.9375 32C1.96777 31.1848 2.19055 30.7893 2.78418 30.2344C3.43159 29.8145 4.2597 29.9284 5 29.9375Z" fill="#94B316"/>
<path d="M32.7493 1.99999C33.3287 2.26897 33.7626 2.64894 33.9993 3.24999C34.0739 3.83417 34.069 4.41183 34.0618 4.99999C34.0638 5.15726 34.0657 5.31452 34.0677 5.47655C34.0617 6.89837 34.0617 6.89837 33.4993 7.49999C33.0219 7.95353 32.639 8.03874 31.9993 8.06249C31.1841 8.03222 30.7886 7.80944 30.2337 7.21581C29.8138 6.5684 29.9277 5.74029 29.9368 4.99999C29.9349 4.84272 29.9329 4.68546 29.931 4.52343C29.937 3.10161 29.937 3.1016 30.4993 2.49999C31.1582 1.87402 31.8878 1.88402 32.7493 1.99999Z" fill="#94B316"/>
</svg>
